PathFileType  4	(X/Y/Z) C:\Users\antoi\Documents\MyRepositories\mobilecap\ResultsAnalysis
DataRate	CameraRate	NumFrames	NumMarkers	Units	OrigDataRate	OrigDataStartFrame	OrigNumFrames
100.0	100.0	4	51	mm	100.0	124	141
Frame#	Time	r_knee			r_shank_antsup			r_ankle			r_calc			r_5meta			r_toe			L_knee			L_shank_antsup			L_ankle			L_calc			L_5meta			L_toe			r_sh2			r_sh3			r_sh4			L_sh2			L_sh3			r_thigh1			r_thigh2			r_thigh3			r_thigh4			r_thigh5			L_thigh1			L_thigh2			L_thigh3			L_thigh4			r.ASIS			r.PSIS			L.ASIS			L.PSIS			C7			R_Shoulder			L_Shoulder			R_Sternum			L_Sternum			R_humerus			R_elbow_med			R_elbow_lat			R_forearm			R_wrist_radius			R_wrist_ulna			L_humerus			L_elbow_med			L_elbow_lat			L_forearm			L_wrist_radius			L_wrist_ulna			R_HJC			L_HJC			R_HJC_reg			L_HJC_reg			
		X1	Y1	Z1	X2	Y2	Z2	X3	Y3	Z3	X4	Y4	Z4	X5	Y5	Z5	X6	Y6	Z6	X7	Y7	Z7	X8	Y8	Z8	X9	Y9	Z9	X10	Y10	Z10	X11	Y11	Z11	X12	Y12	Z12	X13	Y13	Z13	X14	Y14	Z14	X15	Y15	Z15	X16	Y16	Z16	X17	Y17	Z17	X18	Y18	Z18	X19	Y19	Z19	X20	Y20	Z20	X21	Y21	Z21	X22	Y22	Z22	X23	Y23	Z23	X24	Y24	Z24	X25	Y25	Z25	X26	Y26	Z26	X27	Y27	Z27	X28	Y28	Z28	X29	Y29	Z29	X30	Y30	Z30	X31	Y31	Z31	X32	Y32	Z32	X33	Y33	Z33	X34	Y34	Z34	X35	Y35	Z35	X36	Y36	Z36	X37	Y37	Z37	X38	Y38	Z38	X39	Y39	Z39	X40	Y40	Z40	X41	Y41	Z41	X42	Y42	Z42	X43	Y43	Z43	X44	Y44	Z44	X45	Y45	Z45	X46	Y46	Z46	X47	Y47	Z47	X48	Y48	Z48	X49	Y49	Z49	X50	Y50	Z50	X51	Y51	Z51	

124	1.23000000	1430.29986	491.32462	-130.14078	1490.03589	408.65409	-146.05547	1479.68206	88.36745	-167.86254	1422.49074	54.27697	-218.75578	1603.54075	51.98105	-132.75206	1632.34913	85.95626	-187.69718	1147.12516	482.89313	-380.27926	1132.00811	386.69922	-366.16615	884.72879	154.34908	-334.31528	803.13770	158.28212	-281.05016	939.10393	39.62757	-360.44292	994.64163	48.51770	-305.97848	1505.78651	297.02483	-155.47609	1429.30121	395.21357	-102.17228	1438.61390	280.92232	-107.53071	1074.91376	445.16627	-402.56486	994.20165	351.85649	-399.05390	1383.25217	764.19082	-83.84866	1425.42202	664.49399	-109.93950	1387.68025	615.57788	-79.69813	1283.91209	715.12468	-64.78165	1332.42368	614.28344	-93.90096	1297.59991	700.71816	-402.74146	1273.62333	565.12582	-378.64454	1194.72637	714.23699	-435.61752	1167.90876	587.20394	-399.49718	1364.64731	932.44698	-124.79848	1157.09803	966.98502	-203.63996	1363.50532	916.45760	-383.88712	1161.99523	972.27378	-297.96550	1212.36402	1424.56688	-255.53581	1275.76741	1377.93883	-86.57495	1306.11757	1393.06560	-407.20800	1334.40533	1345.78425	-226.80548	1336.14852	1348.75701	-273.00269	1304.45974	1245.27893	-34.88966	1222.33067	1047.77721	-79.75113	1219.82683	1060.87269	-13.60225	1268.08564	995.93361	20.58879	1321.44563	831.48780	8.50486	1279.63851	832.88951	38.04038	1343.01939	1253.41498	-461.60617	1265.13911	1052.63418	-438.79129	1303.39729	1066.25989	-506.91901	1360.47807	1015.17809	-500.40853	1421.03867	852.21569	-460.88147	1399.31514	850.03382	-506.04866	1276.81454	847.12305	-146.44502	1275.15083	839.63886	-335.84628	1287.28915	840.16192	-169.82480	1296.14319	849.74964	-340.64358	
125	1.24000000	1445.49618	492.38092	-130.90731	1503.23938	407.83400	-147.12149	1482.35716	88.36916	-168.30758	1423.54801	55.16253	-218.64143	1605.20241	48.84838	-133.14650	1634.88288	81.56404	-188.41146	1168.06291	479.87066	-381.81569	1150.31063	383.68059	-367.60953	894.71610	161.12888	-335.95717	813.80825	170.23802	-282.69606	941.54436	42.13767	-360.70840	997.49976	48.15169	-306.29610	1515.83508	295.86113	-156.51792	1442.87835	396.05513	-102.21696	1449.06849	281.56778	-107.23560	1095.69676	443.73733	-404.05088	1011.37002	353.71067	-400.48034	1397.92586	765.65390	-85.17090	1440.43386	666.14223	-110.91637	1403.27372	617.33200	-80.23764	1299.48240	716.49814	-64.63311	1347.87255	615.73658	-93.72892	1314.98740	699.96812	-403.11280	1293.38528	563.89137	-379.87689	1211.84444	712.08110	-435.53191	1187.34674	584.28771	-400.28213	1379.29828	933.37146	-124.39933	1171.38477	966.98610	-204.66995	1378.75442	915.97766	-383.15970	1177.01541	971.19890	-299.39996	1224.57398	1424.27610	-251.86791	1287.98615	1376.23402	-83.37415	1318.60507	1394.58960	-403.84668	1346.89427	1345.83393	-223.68112	1348.81454	1349.23082	-269.82681	1317.63639	1243.21052	-33.12894	1236.38576	1045.78264	-79.48433	1233.78527	1058.32826	-13.34681	1281.72950	993.29341	20.63545	1335.19307	828.93743	7.68149	1293.23228	830.10421	37.10740	1355.65071	1255.25386	-459.42911	1277.70913	1054.46289	-436.98443	1315.72732	1068.34031	-505.63193	1372.71470	1017.16980	-499.86359	1433.20154	853.75622	-461.99682	1411.22735	852.02398	-507.04545	1291.43770	847.73765	-146.04011	1290.78306	838.98365	-335.38537	1301.62722	841.40582	-168.96252	1311.75331	849.02339	-339.63703	
126	1.25000000	1460.31674	493.44512	-131.56894	1515.67366	406.95844	-148.04455	1484.28733	88.53023	-168.68104	1424.24729	55.72088	-218.52148	1606.24068	46.66665	-133.16737	1636.65424	78.31487	-188.70454	1190.62748	476.55660	-383.49611	1170.23517	380.51686	-369.15169	906.50360	168.53380	-337.54510	826.85279	183.36177	-284.28352	944.52463	45.61365	-360.92067	1000.91155	48.23966	-306.77119	1525.08985	294.73939	-157.42857	1455.82809	396.86140	-102.03718	1458.80711	282.23500	-106.76611	1117.94455	442.18713	-405.51190	1030.28748	355.57242	-401.96103	1412.53442	767.43019	-86.44296	1455.32408	668.08114	-111.91209	1418.95838	619.38751	-80.50431	1315.00027	718.16963	-63.99276	1363.28416	617.32136	-93.10817	1332.93276	699.50469	-403.49747	1314.21447	562.86687	-381.17486	1229.46902	709.70344	-435.34786	1207.82744	581.14465	-401.19763	1393.75491	934.72831	-124.02434	1185.54361	967.30215	-205.79480	1393.83027	915.77616	-382.25219	1191.88012	970.22013	-300.93244	1236.72423	1424.17295	-248.42876	1300.04752	1374.88245	-80.37106	1331.03243	1396.24707	-400.60443	1359.27921	1346.13882	-220.66321	1361.41084	1349.91767	-266.74439	1330.78055	1241.57961	-31.47135	1250.56352	1044.17348	-79.23705	1247.82531	1056.22234	-13.08113	1295.54291	991.08600	20.67209	1349.06365	826.79878	6.88626	1306.98227	827.76053	36.25393	1368.10359	1257.26145	-457.45798	1290.18939	1056.48745	-434.93381	1327.87355	1070.51677	-504.23001	1384.78884	1019.25696	-499.27204	1445.19965	855.37849	-463.11450	1422.87011	854.09378	-508.00937	1305.91192	848.74448	-145.55384	1306.34154	838.54984	-334.82159	1315.80310	843.28184	-167.88493	1327.13320	848.54670	-338.28014	
127	1.26000000	1474.40035	494.33668	-132.13349	1527.14495	405.95724	-148.94993	1485.62180	88.73570	-169.01448	1424.66417	56.03563	-218.42834	1606.82468	45.22022	-132.97816	1637.84894	75.95561	-188.76873	1214.69411	473.05615	-385.27912	1191.69892	377.30424	-370.75373	920.20555	176.44016	-339.07475	842.51662	197.48636	-285.73839	948.19294	50.17495	-361.05974	1004.95652	48.92541	-307.45971	1533.50309	293.59973	-158.30706	1467.93649	397.50927	-101.81012	1467.73615	282.81019	-106.31488	1141.52821	440.65378	-406.92385	1050.91491	357.47900	-403.46895	1427.03806	769.27473	-87.52676	1469.89047	669.99043	-112.84371	1434.36140	621.44603	-80.53254	1330.29839	719.99025	-62.96425	1378.34182	618.90350	-92.16772	1351.39434	699.33303	-403.88259	1335.99737	562.09003	-382.49020	1247.55783	707.15065	-435.08496	1229.26729	577.86194	-402.21507	1407.99961	936.41426	-123.66019	1199.53866	967.87216	-206.94660	1408.67989	915.84477	-381.19713	1206.54096	969.36378	-302.44749	1248.80133	1424.24630	-245.27474	1311.93435	1373.88480	-77.60420	1343.38040	1397.99717	-397.52233	1371.55804	1346.67286	-217.79462	1373.92038	1350.78237	-263.80424	1343.85558	1240.39893	-29.92237	1264.84193	1042.95362	-79.02355	1261.92838	1054.55602	-12.82284	1309.50941	989.32667	20.69654	1363.06373	825.09141	6.13462	1320.89044	825.87679	35.48449	1380.38428	1259.40259	-455.71897	1302.60553	1058.66643	-432.68722	1339.82969	1072.75048	-502.74293	1396.69526	1021.40041	-498.66267	1457.04561	857.06594	-464.22680	1434.26330	856.21084	-508.93251	1320.20876	850.05545	-144.99502	1321.74744	838.33749	-334.16697	1329.79519	845.63198	-166.66300	1342.24417	848.32660	-336.66127	
